HIERARCHY
ROOT Hips
{
 OFFSET 0.000000 0.000000 0.000000
 CHANNELS 6 Xposition Yposition Zposition Yrotation Xrotation Zrotation
 JOINT Chest
 {
  OFFSET 0.000000 9.585900 0.002600
  CHANNELS 3 Yrotation Xrotation Zrotation
  JOINT Chest2
  {
   OFFSET 0.000000 9.601200 -0.005300
   CHANNELS 3 Yrotation Xrotation Zrotation
   JOINT Chest3
   {
    OFFSET 0.000000 9.561800 0.000000
    CHANNELS 3 Yrotation Xrotation Zrotation
    JOINT Chest4
    {
     OFFSET 0.000000 9.552100 0.000000
     CHANNELS 3 Yrotation Xrotation Zrotation
     JOINT Neck
     {
      OFFSET 0.000000 14.453000 0.000000
      CHANNELS 3 Yrotation Xrotation Zrotation
      JOINT Head
      {
       OFFSET 0.000000 8.936500 -0.011300
       CHANNELS 3 Yrotation Xrotation Zrotation
       End Site
       {
        OFFSET 0.000000 17.073600 -0.006000
       }
      }
     }
     JOINT RightCollar
     {
      OFFSET -2.921100 9.558500 0.000000
      CHANNELS 3 Yrotation Xrotation Zrotation
      JOINT RightShoulder
      {
       OFFSET -13.519700 0.000000 0.000000
       CHANNELS 3 Yrotation Xrotation Zrotation
       JOINT RightElbow
       {
        OFFSET 0.000000 -29.696600 0.000000
        CHANNELS 3 Yrotation Xrotation Zrotation
        JOINT RightWrist
        {
         OFFSET 0.000000 -24.004700 0.000000
         CHANNELS 3 Yrotation Xrotation Zrotation
         End Site
         {
          OFFSET 0.000000 -17.728500 0.000000
         }
        }
       }
      }
     }
     JOINT LeftCollar
     {
      OFFSET 2.921100 9.558500 0.000000
      CHANNELS 3 Yrotation Xrotation Zrotation
      JOINT LeftShoulder
      {
       OFFSET 13.519700 0.000000 0.000000
       CHANNELS 3 Yrotation Xrotation Zrotation
       JOINT LeftElbow
       {
        OFFSET 0.000000 -29.696600 0.000000
        CHANNELS 3 Yrotation Xrotation Zrotation
        JOINT LeftWrist
        {
         OFFSET 0.000000 -24.004700 0.000000
         CHANNELS 3 Yrotation Xrotation Zrotation
         End Site
         {
          OFFSET 0.000000 -17.728500 0.000000
         }
        }
       }
      }
     }
    }
   }
  }
 }
 JOINT RightHip
 {
  OFFSET -7.771700 -0.012900 -0.001300
  CHANNELS 3 Yrotation Xrotation Zrotation
  JOINT RightKnee
  {
   OFFSET 0.000000 -40.869800 0.001200
   CHANNELS 3 Yrotation Xrotation Zrotation
   JOINT RightAnkle
   {
    OFFSET 0.000000 -39.717900 0.002100
    CHANNELS 3 Yrotation Xrotation Zrotation
    JOINT RightToe
    {
     OFFSET 0.000000 -4.965400 11.033500
     CHANNELS 3 Yrotation Xrotation Zrotation
     End Site
     {
      OFFSET 0.000000 -1.423100 5.872300
     }
    }
   }
  }
 }
 JOINT LeftHip
 {
  OFFSET 7.771700 -0.012900 -0.001300
  CHANNELS 3 Yrotation Xrotation Zrotation
  JOINT LeftKnee
  {
   OFFSET 0.000000 -40.869800 0.001200
   CHANNELS 3 Yrotation Xrotation Zrotation
   JOINT LeftAnkle
   {
    OFFSET 0.000000 -39.717900 0.002100
    CHANNELS 3 Yrotation Xrotation Zrotation
    JOINT LeftToe
    {
     OFFSET 0.000000 -4.965400 11.033500
     CHANNELS 3 Yrotation Xrotation Zrotation
     End Site
     {
      OFFSET 0.000000 -1.423100 5.872300
     }
    }
   }
  }
 }
}
MOTION
Frames: 7
Frame Time: 0.008333
0.000000 85.388000 0.000000 0.000000 -5.767877 0.000000 0.000000 11.653817 0.000000 0.000000 -5.885947 0.000000 0.000000 -0.000000 0.000000 0.000000 -0.000000 0.000000 0.000000 12.528835 0.000000 0.000000 0.711642 0.000000 0.000000 -0.000000 0.000000 0.000000 0.000000 -90.000000 0.000000 -2.309062 0.000000 0.000000 2.309062 0.000000 0.000000 -0.000000 0.000000 0.000000 -0.000000 90.000000 0.000000 -2.309062 0.000000 0.000000 2.309062 0.000000 0.000000 8.520406 0.000000 0.000000 1.905762 0.000000 -0.000000 -4.658285 0.000000 0.000000 -0.000000 0.000000 0.000000 8.520406 0.000000 0.000000 1.905762 0.000000 -0.000000 -4.658285 0.000000 0.000000 -0.000000 0.000000
-35.925991 57.885896 12.493050 176.323186 -47.596925 -2.519805 3.482072 21.883675 2.875534 1.814369 12.527496 1.378490 2.311682 15.645873 1.847825 1.798137 12.522966 1.418657 1.445622 10.920521 1.211856 2.011021 -15.425156 1.699471 2.950779 3.433463 0.740459 -5.795577 -15.859279 -9.590167 -95.791938 -51.771414 144.503515 8.318270 -5.680639 -7.262918 -8.694822 1.201902 -1.038438 8.130704 -14.423750 9.783757 117.136433 -60.529538 -148.943291 -3.883240 -25.615572 24.075750 2.512930 -24.373721 -3.694320 -33.036678 73.688726 -36.408586 7.266764 -13.587986 10.933906 0.042802 0.045420 0.014844 -5.794365 -21.229318 5.733983 87.387185 82.349086 87.931715 1.651554 -22.151850 -18.499551 -0.038642 0.007317 -0.000390
-35.934798 57.889427 12.494387 176.388892 -47.604088 -2.601169 3.476402 21.893043 2.879345 1.852216 12.536244 1.329244 2.311922 15.641890 1.893589 1.821617 12.542661 1.338055 1.296520 10.936684 1.338034 1.845176 -15.468572 2.008776 2.980949 3.445187 0.774296 -5.773760 -15.843108 -9.538905 -95.847576 -51.776887 144.550829 8.395653 -5.597591 -7.160991 -8.655109 1.204257 -1.011110 7.973705 -14.369711 9.883897 117.186152 -60.506021 -149.192824 -3.952795 -25.525186 23.751516 2.477204 -24.342103 -3.667451 -32.999443 73.666014 -36.351609 7.259563 -13.591272 10.934799 0.041681 0.047351 0.019557 -5.837797 -21.234820 5.771090 87.472742 82.362155 88.007066 1.652452 -22.134736 -18.488386 -0.049011 -0.004678 0.011887
-35.946594 57.892657 12.495945 176.460241 -47.605077 -2.679096 3.540686 21.898006 2.813215 1.841128 12.532945 1.372411 2.310614 15.640864 1.940750 1.844376 12.553729 1.252942 1.184415 10.943157 1.480286 1.628625 -15.478007 2.328542 3.012136 3.463861 0.807445 -5.752303 -15.811086 -9.469574 -95.912079 -51.789277 144.600862 8.478907 -5.499590 -7.061735 -8.615620 1.208808 -0.985581 7.778119 -14.312562 10.005549 117.305105 -60.478990 -149.486911 -4.054132 -25.428541 23.415908 2.438494 -24.316920 -3.643499 -32.944510 73.640501 -36.296024 7.252870 -13.586308 10.954092 0.042037 0.045524 0.019224 -5.886311 -21.245963 5.804615 87.576707 82.367413 88.093835 1.636743 -22.125991 -18.461342 -0.052862 -0.010221 0.008153
-35.960457 57.895445 12.497400 176.513266 -47.600656 -2.735904 3.588700 21.893986 2.766651 1.849795 12.531889 1.377584 2.362486 15.654418 1.829169 1.854425 12.536030 1.342424 1.089529 10.951377 1.632045 1.379270 -15.461423 2.662461 3.036363 3.491623 0.842105 -5.728838 -15.765377 -9.381670 -95.975550 -51.807621 144.653858 8.574897 -5.391571 -6.972700 -8.577122 1.212405 -0.961540 7.538092 -14.251591 10.147272 117.481930 -60.446513 -149.811848 -4.180137 -25.324306 23.069338 2.404575 -24.307359 -3.622670 -32.863558 73.624637 -36.239052 7.247016 -13.570675 10.986436 0.029402 0.034335 0.014937 -5.920512 -21.260630 5.830871 87.667413 82.375452 88.161995 1.624871 -22.120613 -18.429772 -0.052987 -0.011751 -0.002408
-35.972518 57.897254 12.499282 176.591024 -47.585017 -2.821570 3.615247 21.877992 2.749037 1.866671 12.529280 1.361961 2.395909 15.653785 1.779072 1.866699 12.529277 1.361953 0.990468 10.967913 1.789281 1.119749 -15.428412 3.008580 3.051556 3.527664 0.876106 -5.702975 -15.707259 -9.274833 -96.033760 -51.831927 144.705901 8.684229 -5.280939 -6.897964 -8.540397 1.211389 -0.942831 7.254833 -14.187760 10.311574 117.686333 -60.406306 -150.141799 -4.333380 -25.219002 22.703925 2.348497 -24.309080 -3.593532 -32.828260 73.612049 -36.206135 7.242805 -13.562496 10.986086 0.028671 0.026135 0.024177 -5.958760 -21.295553 5.877265 87.800431 82.396384 88.289370 1.600524 -22.108671 -18.401018 -0.044644 -0.023728 -0.001585
-35.982922 57.900918 12.498582 176.717791 -47.581747 -2.947978 3.615166 21.872636 2.740837 1.883528 12.524643 1.345525 2.416449 15.647975 1.758896 1.883492 12.524657 1.345498 0.886329 10.990537 1.950763 0.848902 -15.382879 3.364900 3.061563 3.569968 0.907686 -5.672744 -15.636549 -9.152331 -96.091264 -51.860727 144.751686 8.797414 -5.177304 -6.838389 -8.506753 1.206076 -0.931606 6.925565 -14.120086 10.506583 117.902958 -60.352797 -150.462770 -4.513830 -25.114522 22.307963 2.287500 -24.275648 -3.557879 -32.811067 73.574583 -36.173655 7.231999 -13.560013 10.999489 0.031257 0.025739 0.029350 -6.037000 -21.303750 5.922626 87.872972 82.404189 88.348109 1.585134 -22.115592 -18.376931 -0.043527 -0.016159 -0.000140
